<svg width="40" height="40" viewBox="0 0 40 40" fill="none" xmlns="http://www.w3.org/2000/svg">
<g clip-path="url(#clip0_1041_173976)">
<rect x="0.5" y="0.5" width="42" height="42" rx="5" fill="#ECC51D"/>
<path d="M-7.98029 43.582C-10.6799 44.7126 -11.7052 47.4842 -9.94076 49.0664C-6.31063 52.3223 8.63401 50.714 9.33716 48.507C10.0299 46.3327 -2.34722 41.222 -7.98029 43.582Z" stroke="#003366" stroke-width="0.75" stroke-miterlimit="10"/>
<path d="M-1.29118 36.3402C4.87514 34.1796 15.229 49.5625 10.9552 53.1941C8.32752 55.4273 1.96646 55.1482 -3.22094 54.4143C-8.09074 53.7255 -15.0491 50.9087 -16.7658 46.2307C-17.6748 43.7473 -17.1291 40.2091 -15.204 38.97C-13.714 38.0112 -11.7026 38.4426 -11.2589 38.2831C-9.14351 39.1608 -8.8331 39.5019 -7.14775 39.7078C-4.94484 39.9771 -2.98699 36.9342 -1.29118 36.3402Z" stroke="#003366" stroke-width="0.75" stroke-miterlimit="10"/>
<path d="M4.96532 28.7742C12.1269 29.9179 19.9093 52.3864 12.1406 57.5571C7.19306 60.8503 -1.43234 59.3962 -7.44443 57.6552C-12.9671 56.056 -22.163 50.7192 -24.0234 43.0709C-25.105 38.6269 -23.7908 32.3752 -20.0254 30.5668C-17.0239 29.1258 -13.1566 30.3649 -12.4756 30.4603C-8.45081 32.6261 -8.12537 33.728 -5.12847 34.4697C-1.16048 35.4507 1.97234 28.2938 4.96532 28.7742Z" stroke="#003366" stroke-width="0.75" stroke-miterlimit="10"/>
<path d="M10.7683 21.2585C18.6755 23.3668 24.1361 55.2423 12.8725 61.9698C5.60312 66.3112 -5.28923 63.7069 -12.1215 60.9457C-18.3022 58.4486 -29.697 50.5905 -31.7346 39.9607C-32.9638 33.5502 -30.9125 24.5988 -25.301 22.2134C-20.7919 20.2959 -15.0334 22.2637 -14.1473 22.6872C-7.95219 25.6496 -7.87378 28.0037 -3.56075 29.2813C2.16839 30.9831 6.62714 20.1567 10.7683 21.2585Z" stroke="#003366" stroke-width="0.75" stroke-miterlimit="10"/>
<path d="M16.2223 14.0847C24.9791 17.1262 27.9995 58.408 13.2555 66.7249C3.65442 72.0924 -9.50031 68.3666 -17.1468 64.5794C-23.9927 61.1895 -37.5722 50.8107 -39.7974 37.1924C-41.1651 28.8212 -38.3858 17.1668 -30.9276 14.2004C-24.9083 11.8084 -17.3043 14.6141 -16.1692 15.2539C-8.18353 19.7554 -7.97703 22.631 -2.34918 24.4354C5.14241 26.858 10.9807 12.2646 16.2223 14.0847Z" stroke="#003366" stroke-width="0.75" stroke-miterlimit="10"/>
<path d="M-36.7992 6.28281C-29.2723 3.41706 -19.8274 7.05659 -18.4361 7.91664C-8.68149 13.9475 -8.32076 17.3321 -1.38006 19.6803C7.8753 22.8113 15.1277 4.4137 21.4267 7.00169C31.1023 10.9771 31.6453 61.7182 13.3888 71.5709C1.47634 77.9997 -13.9663 73.1217 -22.4224 68.3032C-29.9323 64.0245 -45.6866 51.1251 -48.1045 34.5155C-49.6075 24.1844 -46.1055 9.82562 -36.7992 6.28281Z" stroke="#003366" stroke-width="0.75" stroke-miterlimit="10"/>
<path d="M44.6491 1.05454C41.6842 1.0297 38.1286 -4.11296 40.7876 -4.9717C42.3233 -5.46839 46.3893 -4.68284 47.9864 -3.28493C50.2357 -1.31779 46.6893 1.07218 44.6491 1.05454Z" stroke="#003366" stroke-width="0.75" stroke-miterlimit="10"/>
<path d="M36.5916 -4.25151C36.8817 -4.94165 38.2403 -5.24815 39.48 -6.0886C41.9946 -7.79432 42.3553 -8.6047 44.1413 -9.63336C44.8379 -10.0353 45.775 -10.5633 46.6899 -10.3215C48.091 -9.95098 48.4406 -8.34721 50.2188 -5.52263C52.5243 -1.85239 53.3973 -0.903454 52.7386 1.04146C52.585 1.49371 52.3864 2.95828 51.2761 3.85166C49.7384 5.08684 47.9361 4.13268 45.6829 4.95025C42.9768 5.93055 41.6352 7.67549 40.4609 6.90432C39.6336 6.36123 39.6028 4.87378 38.9833 2.28383C38.5115 0.310809 38.2148 -0.98384 37.6411 -2.03995C36.9529 -3.29735 36.2687 -3.48426 36.5916 -4.25151Z" stroke="#003366" stroke-width="0.75" stroke-miterlimit="10"/>
<path d="M32.0596 -2.81308C32.1099 -4.0365 34.0312 -4.6286 35.6146 -6.39641C38.8618 -10.0229 37.3575 -12.6141 39.9603 -15.2636C41.0647 -16.3883 42.7977 -17.4777 44.5347 -17.2666C46.9997 -16.9667 47.8277 -14.4199 51.6225 -9.25628C56.5838 -2.50527 58.6971 -1.18317 58.2338 2.41454C58.139 3.1478 58.0469 5.96323 56.108 7.65784C53.5222 9.91777 50.4227 7.86175 46.3743 9.56028C41.8508 11.4555 40.1603 15.5074 38.635 14.669C37.5757 14.0867 37.9815 11.7418 37.1673 7.16835C36.5909 3.91767 36.2348 2.01784 35.0827 0.46178C33.6286 -1.50078 32.0054 -1.48445 32.0596 -2.81308Z" stroke="#003366" stroke-width="0.75" stroke-miterlimit="10"/>
<path d="M27.5231 -1.39034C27.3271 -3.14377 29.8149 -4.02539 31.7446 -6.72057C35.7178 -12.2691 32.2923 -16.6059 35.7747 -20.9101C37.2653 -22.7518 39.8218 -24.3993 42.3749 -24.2274C45.9136 -23.9896 47.2212 -20.5193 53.0268 -13.0056C60.6596 -3.18821 63.9466 -1.45961 63.731 3.77193C63.6885 4.79209 63.7081 8.95118 60.9419 11.4503C57.3072 14.733 52.904 11.5712 47.0683 14.1559C40.7229 16.9661 38.6893 23.3231 36.8085 22.4199C35.5179 21.7951 36.3445 18.5954 35.3506 12.0385C34.6644 7.51014 34.2508 5.0143 32.5229 2.94913C30.2958 0.287937 27.7329 0.498374 27.5231 -1.39034Z" stroke="#003366" stroke-width="0.75" stroke-miterlimit="10"/>
<path d="M22.9761 0.0284875C22.5363 -2.253 25.5836 -3.4274 27.8642 -7.04798C32.555 -14.5218 27.2009 -20.5873 31.5793 -26.5599C33.4509 -29.1152 36.8373 -31.3216 40.2054 -31.1922C44.8203 -31.0144 46.5867 -26.6089 54.4181 -16.7582C64.6981 -3.85743 69.1719 -1.7269 69.2118 5.12606C69.2196 6.43313 69.349 11.932 65.7587 15.2388C61.0706 19.5404 55.3722 15.2748 47.7453 18.7483C39.5767 22.4695 37.2 31.1374 34.9716 30.1675C33.4489 29.5022 34.6971 25.4451 33.5234 16.9054C32.7255 11.0987 32.257 8.0101 29.9534 5.43322C26.9513 2.07666 23.4493 2.48186 22.9761 0.0284875Z" stroke="#003366" stroke-width="0.75" stroke-miterlimit="10"/>
<path d="M18.4207 1.44665C19.1571 4.46598 23.5969 3.86473 27.3735 7.91664C30.2534 11.0059 30.7768 14.6859 31.6865 21.7716C33.0372 32.2935 31.3695 37.2087 33.1241 37.9139C35.7035 38.951 38.4226 27.9716 48.4158 23.34C57.83 18.9771 64.8354 24.3556 70.5691 19.0267C74.9893 14.918 74.7435 8.07937 74.686 6.47886C74.3815 -1.99355 68.7282 -4.52796 55.8002 -20.5121C45.9423 -32.6999 43.7192 -38.0392 38.0253 -38.1575C33.843 -38.2444 29.6247 -35.478 27.3735 -32.2104C22.1018 -24.564 29.3947 -16.7667 23.9753 -7.37606C21.3489 -2.8255 17.7351 -1.36224 18.4207 1.44665Z" stroke="#003366" stroke-width="0.75" stroke-miterlimit="10"/>
<path d="M56.0975 50.0435C55.3238 49.6513 53.6992 50.4068 53.5555 51.5838C53.3928 52.919 55.231 54.0235 56.0387 53.6804C56.9941 53.2739 57.1242 50.5624 56.0975 50.0435Z" stroke="#003366" stroke-width="0.75" stroke-miterlimit="10"/>
<path d="M58.2776 57.1376C59.5963 55.9043 60.1727 53.6412 60.8321 49.7618C61.4856 45.9151 61.383 43.1611 60.8086 42.9611C60.4955 42.8533 59.6087 43.697 58.8481 44.3152C57.4241 45.4694 54.9866 45.3413 54.3619 45.4661C52.0747 45.9236 51.4029 46.7732 50.4468 48.4005C50.0044 49.152 48.9726 50.8185 48.5184 52.7791C47.8257 55.7482 44.721 56.6631 45.0993 57.8532C45.4176 58.8466 48.4936 59.0877 50.488 59.1158C53.3464 59.1563 56.2387 59.042 58.2776 57.1376Z" stroke="#003366" stroke-width="0.75" stroke-miterlimit="10"/>
<path d="M60.5635 60.4529C62.7311 58.2492 63.5839 54.5509 64.8974 47.6345C66.2318 40.6848 66.2234 35.918 65.5659 35.7402C65.0726 35.6043 63.4748 37.3224 62.1168 38.5504C59.5571 40.875 54.9749 40.4927 54.0306 40.6417C49.7241 41.307 48.6628 42.901 46.9938 45.9138C46.2985 47.1686 44.3909 50.2271 43.5218 53.8392C42.1841 59.3727 35.842 60.8215 36.3668 62.873C36.8053 64.5813 42.6866 64.8434 46.3874 64.7029C51.6127 64.4996 56.9007 64.1781 60.5635 60.4529Z" stroke="#003366" stroke-width="0.75" stroke-miterlimit="10"/>
<path d="M62.837 63.7468C65.8554 60.5732 66.9749 55.4371 68.9497 45.4857C70.9553 35.4311 71.0487 28.6624 70.3103 28.4938C69.6339 28.337 67.3264 30.925 65.3751 32.766C61.6862 36.267 54.9533 35.6232 53.6888 35.7918C47.3643 36.6362 45.9077 38.9974 43.5303 43.4022C42.5814 45.1596 39.7995 49.6108 38.5141 54.8724C36.5334 62.971 26.9533 64.9525 27.6231 67.866C28.1825 70.2893 36.8706 70.5827 42.2763 70.2618C49.8672 69.8338 57.5587 69.2966 62.837 63.7468Z" stroke="#003366" stroke-width="0.75" stroke-miterlimit="10"/>
<path d="M65.1033 67.0386C68.9745 62.8952 70.3593 56.3207 72.9955 43.3343C75.6748 30.176 75.8708 21.4075 75.0487 21.2448C74.1887 21.0729 71.1703 24.5203 68.6269 26.9757C63.8015 31.6452 54.9258 30.7466 53.3411 30.9393C44.9987 31.9517 43.1356 35.086 40.0603 40.8874C38.8539 43.1461 35.2016 48.9913 33.5012 55.903C30.8755 66.5661 18.0573 69.0809 18.8742 72.8564C19.5531 75.9933 31.048 76.3064 38.1593 75.8188C48.1126 75.1477 58.2122 74.4151 65.1033 67.0386Z" stroke="#003366" stroke-width="0.75" stroke-miterlimit="10"/>
<path d="M52.9902 26.0849C42.6305 27.2612 40.3779 31.1825 36.5876 38.3713C35.1304 41.1351 30.6004 48.3704 28.4844 56.9317C25.2169 70.1605 9.15876 73.208 10.1213 77.8448C10.9212 81.7006 25.2222 82.0274 34.039 81.3739C46.3586 80.4589 58.8644 79.5322 67.367 70.3292C72.091 65.2152 73.7404 57.2042 77.0386 41.1815C80.3864 24.919 80.6851 14.1527 79.7832 13.9945C78.7377 13.8115 75.0128 18.1118 71.876 21.1834C65.9136 27.0208 54.8958 25.8686 52.9902 26.0849Z" stroke="#003366" stroke-width="0.75" stroke-miterlimit="10"/>
<path d="M-31.2445 -5.35011C-30.0682 -0.84072 -21.6251 -2.95882 -11.5745 7.19775C-7.9731 10.8373 -5.55846 14.6441 -0.791913 15.2362C-0.310945 15.2957 4.4641 15.8179 7.83414 12.7528C12.074 8.89694 9.48616 3.54776 14.4344 -3.91233C16.257 -6.66044 16.5602 -5.86248 17.8979 -8.0296C23.6067 -17.2804 14.8997 -26.6717 19.9237 -36.0662C22.2364 -40.3906 25.6744 -41.3834 25.3476 -41.948C23.9374 -44.3707 -34.4231 -17.5013 -31.2445 -5.35011Z" stroke="#003366" stroke-width="0.75" stroke-miterlimit="10"/>
<path d="M0.515063 9.07144C0.803905 9.03223 3.95241 9.26749 6.11219 7.10037C8.84312 4.36403 6.89638 0.596408 10.0253 -4.49005C11.1767 -6.36308 11.3368 -5.85528 12.1563 -7.33684C15.6525 -13.6591 9.37768 -20.0193 12.4504 -26.2083C13.8724 -29.0734 16.1171 -29.7302 15.7832 -30.0099C14.273 -31.2856 -24.2482 -12.4396 -21.2226 -4.2391C-20.0881 -1.16356 -13.895 -2.25497 -6.80859 4.36926C-4.23188 6.77622 -2.48706 9.47859 0.515063 9.07144Z" stroke="#003366" stroke-width="0.75" stroke-miterlimit="10"/>
<path d="M1.82204 2.906C1.90438 2.69883 3.444 2.7034 4.39025 1.44796C5.61881 -0.180648 4.31052 -2.35038 5.61619 -5.06712C6.0952 -6.06442 6.1148 -5.85136 6.41541 -6.6441C7.70605 -10.0536 3.85047 -13.3631 4.97773 -16.351C5.5051 -17.7574 6.48533 -17.9973 6.22394 -18.0725C4.31314 -17.8012 -14.0342 -7.35972 -11.204 -3.12809C-10.0989 -1.47465 -6.14334 -1.55372 -2.04596 1.54076C-0.4887 2.71712 0.530746 3.57848 1.82204 2.906Z" stroke="#003366" stroke-width="0.75" stroke-miterlimit="10"/>
<path d="M3.12902 -3.25879C2.1148 -6.22257 -1.87801 -7.23032 -3.34052 -6.13435C-5.49704 -4.51619 -3.65746 -2.4092 -1.18401 -2.01708C0.664712 -1.72626 4.28961 0.13305 3.12902 -3.25879Z" stroke="#003366" stroke-width="0.75" stroke-miterlimit="10"/>
</g>
<defs>
<clipPath id="clip0_1041_173976">
<rect x="0.5" y="0.5" width="39" height="39" rx="5" fill="white"/>
</clipPath>
</defs>
</svg>
