<svg width="166" height="41" viewBox="0 0 166 41" fill="none" xmlns="http://www.w3.org/2000/svg">
<path fill-rule="evenodd" clip-rule="evenodd" d="M38.8348 17.3117V7.48013C35.6365 5.56013 29.5429 4.15442 23.5948 4.15442C18.1267 4.15442 11.9308 5.56013 8.83478 7.48013V17.5738V17.9944V19.8497V20.6705H8.86111C9.35218 28.2634 16.6017 32.4657 21.3896 35.2412L21.3896 35.2412L21.3903 35.2416C21.7395 35.444 22.0756 35.6388 22.395 35.8268C22.7549 36.0275 23.1601 36.1399 23.5751 36.1544C23.9902 36.1401 24.3954 36.0276 24.7553 35.8268C25.3122 35.5004 25.9085 35.1651 26.5298 34.8158L26.53 34.8157C31.6384 31.9434 38.4314 28.1239 38.8175 20.5333H30.2148L30.9473 21.9792C30.991 22.0518 31.0182 22.1326 31.027 22.2162C31.0359 22.2998 31.0262 22.3843 30.9987 22.464C30.9711 22.5437 30.9263 22.6168 30.8673 22.6784C30.8082 22.7399 30.7362 22.7886 30.6562 22.8211L28.8663 23.583C28.491 23.727 28.1822 23.9976 27.9969 24.3449L27.2612 26.143C27.1945 26.2899 27.0716 26.4061 26.9183 26.4672C26.765 26.5283 26.5932 26.5295 26.439 26.4706L24.6019 25.7087C24.2247 25.5905 23.8186 25.5905 23.4414 25.7087L21.7577 26.4173C21.6027 26.4845 21.4272 26.4929 21.2662 26.4406C21.1051 26.3884 20.9702 26.2795 20.8883 26.1354L20.0661 24.402C19.8997 24.0372 19.6077 23.7397 19.24 23.5601L17.5012 22.8554C17.4181 22.8328 17.3409 22.7934 17.2748 22.7396C17.2088 22.6858 17.1553 22.619 17.1181 22.5437C17.0808 22.4683 17.0606 22.386 17.0589 22.3025C17.0571 22.2189 17.0738 22.136 17.1078 22.0592L17.6098 20.9734C17.9109 20.576 18.1124 19.8501 18.1124 19.0204C18.1124 18.4861 18.0288 17.9949 17.8889 17.6066C17.8681 17.5445 17.8436 17.4836 17.8156 17.424C17.7982 17.3851 17.7801 17.3475 17.7615 17.3114L17.096 15.6516C17.0398 15.4878 17.0427 15.3105 17.1042 15.1486C17.1656 14.9866 17.282 14.8497 17.4343 14.7601L19.2242 13.9639C19.4153 13.9005 19.5912 13.8003 19.7412 13.6694C19.8913 13.5384 20.0125 13.3795 20.0976 13.202L20.8214 11.423C20.8514 11.3524 20.8962 11.2886 20.9529 11.2356C21.0096 11.1826 21.0771 11.1416 21.151 11.1151C21.2249 11.0886 21.3037 11.0772 21.3824 11.0817C21.4611 11.0862 21.538 11.1064 21.6082 11.1411L23.4493 11.903C23.8444 12.0291 24.2732 12.0129 24.657 11.8573L26.3525 11.1525C26.4284 11.1143 26.5115 11.0912 26.5968 11.0847C26.6821 11.0783 26.7678 11.0885 26.849 11.1148C26.9301 11.1411 27.0049 11.183 27.069 11.2379C27.1331 11.2928 27.1851 11.3596 27.2219 11.4344L28.0441 13.2135C28.1736 13.571 28.432 13.8713 28.7718 14.0592L30.6011 14.7106C30.7591 14.7698 30.8878 14.8852 30.9609 15.0331C31.034 15.1811 31.046 15.3505 30.9945 15.5068L30.1259 17.3117H38.8348Z" fill="white"/>
<path d="M77.8575 9.79414V32.3396H73.2339L64.2619 19.3275H64.1188V32.3396H58.6696V9.79414H63.3592L72.2321 22.7842H72.4193V9.79414H77.8575Z" fill="white"/>
<path d="M85.4106 32.6258C84.3317 32.6258 83.374 32.446 82.5373 32.0864C81.708 31.7195 81.0512 31.169 80.5668 30.4351C80.0898 29.6939 79.8513 28.7655 79.8513 27.65C79.8513 26.7106 80.0164 25.918 80.3466 25.2721C80.6769 24.6263 81.1319 24.1016 81.7117 23.6979C82.2915 23.2943 82.9593 22.9897 83.7153 22.7842C84.4712 22.5714 85.2785 22.4283 86.1371 22.3549C87.0985 22.2668 87.8728 22.1751 88.4599 22.0797C89.047 21.9769 89.4727 21.8338 89.7369 21.6503C90.0085 21.4595 90.1442 21.1916 90.1442 20.8467V20.7917C90.1442 20.2266 89.9497 19.7899 89.5608 19.4816C89.1718 19.1734 88.6471 19.0193 87.9866 19.0193C87.2747 19.0193 86.7022 19.1734 86.2692 19.4816C85.8362 19.7899 85.561 20.2155 85.4436 20.7586L80.4787 20.5825C80.6255 19.555 81.0035 18.6377 81.6126 17.8304C82.2291 17.0157 83.0731 16.3772 84.1446 15.9149C85.2234 15.4452 86.5188 15.2103 88.0306 15.2103C89.1094 15.2103 90.1039 15.3388 91.0139 15.5956C91.9239 15.8452 92.7166 16.2121 93.3917 16.6965C94.0669 17.1735 94.588 17.7606 94.955 18.4579C95.3292 19.1551 95.5164 19.9513 95.5164 20.8467V32.3396H90.4525V29.9838H90.3204C90.0195 30.5562 89.6342 31.0406 89.1645 31.4369C88.7021 31.8332 88.1554 32.1304 87.5242 32.3286C86.9004 32.5267 86.1958 32.6258 85.4106 32.6258ZM87.0729 29.1031C87.6526 29.1031 88.1737 28.9857 88.6361 28.7508C89.1058 28.516 89.48 28.1931 89.7589 27.7821C90.0378 27.3637 90.1773 26.8794 90.1773 26.3289V24.7217C90.0231 24.8024 89.836 24.8758 89.6158 24.9419C89.403 25.0079 89.1681 25.0703 88.9113 25.129C88.6544 25.1877 88.3902 25.2391 88.1187 25.2831C87.8471 25.3272 87.5866 25.3675 87.3371 25.4042C86.8307 25.485 86.3977 25.6097 86.0381 25.7785C85.6858 25.9473 85.4142 26.1675 85.2234 26.439C85.0399 26.7032 84.9482 27.0188 84.9482 27.3858C84.9482 27.9435 85.1464 28.3692 85.5427 28.6628C85.9463 28.9563 86.4564 29.1031 87.0729 29.1031Z" fill="white"/>
<path d="M98.1679 32.3396V15.4305H103.287V18.5349H103.474C103.826 17.5074 104.421 16.6965 105.257 16.102C106.094 15.5076 107.092 15.2103 108.252 15.2103C109.426 15.2103 110.431 15.5112 111.268 16.113C112.105 16.7148 112.637 17.5221 112.864 18.5349H113.04C113.356 17.5295 113.973 16.7258 114.89 16.124C115.807 15.5149 116.89 15.2103 118.137 15.2103C119.737 15.2103 121.036 15.7241 122.034 16.7515C123.033 17.7717 123.532 19.1734 123.532 20.9568V32.3396H118.148V22.1897C118.148 21.3458 117.932 20.7036 117.499 20.2632C117.066 19.8156 116.504 19.5917 115.815 19.5917C115.073 19.5917 114.49 19.8339 114.064 20.3183C113.646 20.7953 113.437 21.4375 113.437 22.2448V32.3396H108.263V22.1347C108.263 21.3494 108.05 20.7293 107.624 20.2743C107.199 19.8192 106.637 19.5917 105.94 19.5917C105.47 19.5917 105.056 19.7055 104.696 19.933C104.336 20.1532 104.054 20.4687 103.848 20.8797C103.65 21.2907 103.551 21.7751 103.551 22.3329V32.3396H98.1679Z" fill="white"/>
<path d="M134.131 32.6588C132.363 32.6588 130.836 32.3102 129.552 31.613C128.275 30.9085 127.291 29.9067 126.601 28.6077C125.919 27.3014 125.578 25.7492 125.578 23.9511C125.578 22.2044 125.923 20.6779 126.612 19.3716C127.302 18.0579 128.275 17.0378 129.53 16.3112C130.785 15.5773 132.263 15.2103 133.966 15.2103C135.17 15.2103 136.271 15.3975 137.269 15.7718C138.267 16.1461 139.129 16.7002 139.856 17.4341C140.582 18.168 141.147 19.0743 141.551 20.1532C141.955 21.2247 142.156 22.4539 142.156 23.841V25.1841H127.46V22.0576H137.148C137.14 21.4852 137.005 20.9751 136.74 20.5275C136.476 20.0798 136.113 19.7312 135.65 19.4816C135.195 19.2248 134.671 19.0963 134.076 19.0963C133.474 19.0963 132.935 19.2321 132.458 19.5037C131.981 19.7679 131.603 20.1311 131.324 20.5935C131.045 21.0485 130.898 21.5659 130.884 22.1457V25.3272C130.884 26.017 131.02 26.6225 131.291 27.1436C131.563 27.6573 131.948 28.0573 132.447 28.3435C132.946 28.6297 133.54 28.7728 134.23 28.7728C134.707 28.7728 135.14 28.7068 135.529 28.5747C135.918 28.4426 136.252 28.2481 136.531 27.9912C136.81 27.7344 137.019 27.4188 137.159 27.0445L142.101 27.1876C141.896 28.2958 141.445 29.2609 140.747 30.0829C140.058 30.8975 139.151 31.5323 138.028 31.9873C136.905 32.435 135.606 32.6588 134.131 32.6588Z" fill="white"/>
</svg>
