<svg width="39" height="40" viewBox="0 0 39 40" fill="none" xmlns="http://www.w3.org/2000/svg">
<g clip-path="url(#clip0_5840_147281)">
<g clip-path="url(#clip1_5840_147281)">
<rect x="-1.5" y="-1.39062" width="42" height="42" rx="5" fill="#883895"/>
<path d="M13.3351 35.9824C10.6355 37.113 9.61019 39.8846 11.3746 41.4668C15.0047 44.7227 29.9494 43.1144 30.6525 40.9074C31.3452 38.7331 18.9682 33.6224 13.3351 35.9824Z" stroke="white" stroke-width="0.75" stroke-miterlimit="10"/>
<path d="M20.0242 28.7405C26.1905 26.58 36.5444 41.9628 32.2706 45.5945C29.6429 47.8277 23.2818 47.5486 18.0944 46.8147C13.2246 46.1259 6.26629 43.3091 4.54957 38.6311C3.64057 36.1477 4.18623 32.6095 6.11141 31.3704C7.60136 30.4116 9.6128 30.843 10.0565 30.6835C12.1719 31.5612 12.4823 31.9023 14.1676 32.1082C16.3705 32.3775 18.3284 29.3346 20.0242 28.7405Z" stroke="white" stroke-width="0.75" stroke-miterlimit="10"/>
<path d="M26.2807 21.1746C33.4423 22.3183 41.2247 44.7868 33.456 49.9575C28.5084 53.2507 19.883 51.7966 13.8709 50.0556C8.3483 48.4564 -0.847595 43.1196 -2.70808 35.4713C-3.7896 31.0273 -2.47543 24.7755 1.28997 22.9672C4.29144 21.5262 8.15878 22.7653 8.83972 22.8607C12.8646 25.0265 13.19 26.1284 16.1869 26.8701C20.1549 27.8511 23.2877 20.6942 26.2807 21.1746Z" stroke="white" stroke-width="0.75" stroke-miterlimit="10"/>
<path d="M32.0837 13.6589C39.9909 15.7672 45.4514 47.6427 34.1879 54.3702C26.9185 58.7116 16.0261 56.1073 9.19392 53.3461C3.01322 50.849 -8.38167 42.9909 -10.4192 32.3611C-11.6485 25.9506 -9.59716 16.9991 -3.98565 14.6137C0.523425 12.6963 6.28197 14.6641 7.1681 15.0876C13.3632 18.05 13.4416 20.4041 17.7546 21.6817C23.4838 23.3835 27.9425 12.5571 32.0837 13.6589Z" stroke="white" stroke-width="0.75" stroke-miterlimit="10"/>
<path d="M37.5377 6.48509C46.2944 9.52664 49.3149 50.8084 34.5708 59.1253C24.9698 64.4928 11.8151 60.767 4.16858 56.9798C-2.67736 53.5899 -16.2569 43.2111 -18.482 29.5928C-19.8497 21.2216 -17.0705 9.56716 -9.61219 6.60076C-3.5929 4.20883 4.01109 7.01445 5.1462 7.65426C13.1318 12.1558 13.3383 15.0314 18.9662 16.8358C26.4578 19.2584 32.2961 4.66499 37.5377 6.48509Z" stroke="white" stroke-width="0.75" stroke-miterlimit="10"/>
<path d="M-15.4838 -1.3168C-7.9569 -4.18255 1.48798 -0.543017 2.87925 0.317034C12.6339 6.34785 12.9946 9.7325 19.9353 12.0806C29.1907 15.2117 36.4431 -3.18591 42.7421 -0.597915C52.4176 3.37753 52.9607 54.1186 34.7042 63.9713C22.7917 70.4001 7.34912 65.5221 -1.10703 60.7036C-8.61692 56.4249 -24.3712 43.5254 -26.7891 26.9159C-28.2922 16.5848 -24.7901 2.22601 -15.4838 -1.3168Z" stroke="white" stroke-width="0.75" stroke-miterlimit="10"/>
<path d="M65.9644 -6.54507C62.9996 -6.56991 59.4439 -11.7126 62.103 -12.5713C63.6387 -13.068 67.7047 -12.2824 69.3018 -10.8845C71.5511 -8.9174 68.0046 -6.52743 65.9644 -6.54507Z" stroke="white" stroke-width="0.75" stroke-miterlimit="10"/>
<path d="M57.9069 -11.8511C58.1971 -12.5413 59.5557 -12.8478 60.7954 -13.6882C63.31 -15.3939 63.6707 -16.2043 65.4567 -17.233C66.1533 -17.6349 67.0904 -18.163 68.0053 -17.9211C69.4064 -17.5506 69.756 -15.9468 71.5341 -13.1222C73.8396 -9.45199 74.7127 -8.50306 74.054 -6.55815C73.9004 -6.1059 73.7018 -4.64133 72.5915 -3.74795C71.0538 -2.51277 69.2515 -3.46693 66.9983 -2.64936C64.2922 -1.66906 62.9506 0.0758785 61.7762 -0.695292C60.9489 -1.23838 60.9182 -2.72582 60.2987 -5.31578C59.8269 -7.2888 59.5302 -8.58345 58.9564 -9.63956C58.2683 -10.897 57.5841 -11.0839 57.9069 -11.8511Z" stroke="white" stroke-width="0.75" stroke-miterlimit="10"/>
<path d="M53.375 -10.4127C53.4253 -11.6361 55.3466 -12.2282 56.93 -13.996C60.1772 -17.6225 58.6728 -20.2137 61.2757 -22.8632C62.3801 -23.9879 64.1131 -25.0773 65.8501 -24.8663C68.315 -24.5663 69.143 -22.0195 72.9378 -16.8559C77.8991 -10.1049 80.0125 -8.78278 79.5492 -5.18507C79.4544 -4.45181 79.3623 -1.63638 77.4234 0.0582352C74.8375 2.31816 71.738 0.262139 67.6897 1.96067C63.1662 3.85592 61.4756 7.90783 59.9504 7.06935C58.8911 6.48705 59.2969 4.14217 58.4827 -0.431264C57.9063 -3.68194 57.5501 -5.58176 56.398 -7.13783C54.944 -9.10039 53.3207 -9.08406 53.375 -10.4127Z" stroke="white" stroke-width="0.75" stroke-miterlimit="10"/>
<path d="M48.8385 -8.98995C48.6424 -10.7434 51.1303 -11.625 53.06 -14.3202C57.0332 -19.8687 53.6076 -24.2055 57.0901 -28.5097C58.5807 -30.3514 61.1371 -31.9989 63.6903 -31.827C67.2289 -31.5892 68.5366 -28.1189 74.3422 -20.6052C81.9749 -10.7878 85.262 -9.05922 85.0463 -3.82768C85.0039 -2.80752 85.0234 1.35157 82.2572 3.85069C78.6225 7.13339 74.2193 3.97159 68.3837 6.55632C62.0383 9.36652 60.0046 15.7234 58.1239 14.8203C56.8333 14.1955 57.6599 10.9958 56.666 4.43887C55.9798 -0.0894709 55.5661 -2.58531 53.8383 -4.65048C51.6112 -7.31167 49.0482 -7.10124 48.8385 -8.98995Z" stroke="white" stroke-width="0.75" stroke-miterlimit="10"/>
<path d="M44.2915 -7.57112C43.8517 -9.85261 46.8989 -11.027 49.1796 -14.6476C53.8703 -22.1214 48.5163 -28.1869 52.8947 -34.1595C54.7663 -36.7148 58.1527 -38.9212 61.5207 -38.7918C66.1357 -38.614 67.902 -34.2085 75.7335 -24.3578C86.0135 -11.457 90.4873 -9.32651 90.5271 -2.47355C90.535 -1.16648 90.6644 4.33235 87.0741 7.63923C82.386 11.9408 76.6876 7.67518 69.0607 11.1487C60.8921 14.8699 58.5153 23.5378 56.2869 22.5679C54.7643 21.9026 56.0125 17.8455 54.8388 9.30575C54.0409 3.4991 53.5723 0.410492 51.2688 -2.16639C48.2667 -5.52295 44.7646 -5.11775 44.2915 -7.57112Z" stroke="white" stroke-width="0.75" stroke-miterlimit="10"/>
<path d="M39.736 -6.15296C40.4725 -3.13363 44.9123 -3.73488 48.6888 0.317028C51.5687 3.40628 52.0922 7.08634 53.0018 14.172C54.3526 24.6939 52.6849 29.6091 54.4395 30.3143C57.0188 31.3514 59.738 20.372 69.7312 15.7404C79.1453 11.3774 86.1507 16.756 91.8844 11.4271C96.3046 7.31834 96.0589 0.479759 96.0014 -1.12075C95.6969 -9.59316 90.0436 -12.1276 77.1156 -28.1117C67.2577 -40.2995 65.0345 -45.6388 59.3407 -45.7571C55.1584 -45.844 50.9401 -43.0776 48.6888 -39.81C43.4171 -32.1636 50.7101 -24.3663 45.2907 -14.9757C42.6643 -10.4251 39.0505 -8.96185 39.736 -6.15296Z" stroke="white" stroke-width="0.75" stroke-miterlimit="10"/>
<path d="M77.4129 42.4438C76.6392 42.0517 75.0146 42.8072 74.8708 43.9842C74.7081 45.3194 76.5464 46.4239 77.3541 46.0808C78.3095 45.6743 78.4395 42.9628 77.4129 42.4438Z" stroke="white" stroke-width="0.75" stroke-miterlimit="10"/>
<path d="M79.593 49.538C80.9117 48.3047 81.4881 46.0415 82.1475 42.1622C82.8009 38.3155 82.6983 35.5615 82.1239 35.3615C81.8109 35.2537 80.9241 36.0974 80.1635 36.7156C78.7395 37.8698 76.302 37.7417 75.6773 37.8665C73.39 38.324 72.7182 39.1736 71.7622 40.8009C71.3198 41.5524 70.2879 43.2189 69.8338 45.1795C69.1411 48.1485 66.0363 49.0635 66.4147 50.2536C66.7329 51.2469 69.8089 51.4881 71.8034 51.5162C74.6617 51.5567 77.5541 51.4424 79.593 49.538Z" stroke="white" stroke-width="0.75" stroke-miterlimit="10"/>
<path d="M81.8789 52.8533C84.0465 50.6496 84.8993 46.9513 86.2128 40.0349C87.5472 33.0852 87.5387 28.3184 86.8813 28.1406C86.3879 28.0047 84.7902 29.7228 83.4322 30.9508C80.8725 33.2754 76.2902 32.8931 75.3459 33.0421C71.0394 33.7074 69.9782 35.3014 68.3092 38.3142C67.6138 39.5689 65.7063 42.6275 64.8372 46.2396C63.4995 51.773 57.1574 53.2219 57.6821 55.2734C58.1206 56.9817 64.002 57.2438 67.7027 57.1033C72.928 56.9 78.2161 56.5785 81.8789 52.8533Z" stroke="white" stroke-width="0.75" stroke-miterlimit="10"/>
<path d="M84.1523 56.1472C87.1708 52.9736 88.2902 47.8375 90.2651 37.8861C92.2706 27.8315 92.3641 21.0628 91.6256 20.8942C90.9493 20.7374 88.6418 23.3254 86.6905 25.1664C83.0016 28.6673 76.2687 28.0236 75.0042 28.1922C68.6797 29.0366 67.2231 31.3978 64.8457 35.8026C63.8968 37.56 61.1149 42.0112 59.8295 47.2728C57.8488 55.3714 48.2686 57.3529 48.9384 60.2664C49.4978 62.6897 58.186 62.9831 63.5916 62.6622C71.1826 62.2342 78.8741 61.697 84.1523 56.1472Z" stroke="white" stroke-width="0.75" stroke-miterlimit="10"/>
<path d="M86.4186 59.439C90.2899 55.2956 91.6747 48.721 94.3108 35.7347C96.9901 22.5764 97.1862 13.8079 96.3641 13.6452C95.5041 13.4733 92.4856 16.9207 89.9423 19.3761C85.1169 24.0456 76.2412 23.1469 74.6565 23.3397C66.3141 24.3521 64.451 27.4864 61.3756 33.2878C60.1693 35.5464 56.517 41.3917 54.8166 48.3034C52.1909 58.9665 39.3727 61.4813 40.1895 65.2568C40.8685 68.3937 52.3634 68.7068 59.4746 68.2192C69.4279 67.5481 79.5276 66.8154 86.4186 59.439Z" stroke="white" stroke-width="0.75" stroke-miterlimit="10"/>
<path d="M74.3056 18.4853C63.9458 19.6616 61.6932 23.5828 57.903 30.7717C56.4457 33.5355 51.9157 40.7708 49.7998 49.3321C46.5323 62.5609 30.4741 65.6084 31.4367 70.2452C32.2366 74.101 46.5375 74.4278 55.3544 73.7743C67.674 72.8593 80.1798 71.9326 88.6823 62.7295C93.4064 57.6156 95.0558 49.6046 98.354 33.5819C101.702 17.3194 102 6.55305 101.099 6.3949C100.053 6.21191 96.3281 10.5122 93.1914 13.5838C87.229 19.4211 76.2112 18.269 74.3056 18.4853Z" stroke="white" stroke-width="0.75" stroke-miterlimit="10"/>
<path d="M-9.92913 -12.9497C-8.75285 -8.44033 -0.309771 -10.5584 9.74089 -0.401859C13.3423 3.23767 15.7569 7.04451 20.5235 7.63661C21.0044 7.69609 25.7795 8.21826 29.1495 5.15318C33.3893 1.29733 30.8015 -4.05185 35.7497 -11.5119C37.5723 -14.2601 37.8755 -13.4621 39.2132 -15.6292C44.9221 -24.88 36.215 -34.2713 41.239 -43.6658C43.5517 -47.9903 46.9898 -48.983 46.663 -49.5476C45.2528 -51.9703 -13.1077 -25.1009 -9.92913 -12.9497Z" stroke="white" stroke-width="0.75" stroke-miterlimit="10"/>
<path d="M21.8304 1.47183C22.1193 1.43262 25.2678 1.66788 27.4276 -0.499236C30.1585 -3.23558 28.2117 -7.0032 31.3407 -12.0897C32.4921 -13.9627 32.6522 -13.4549 33.4717 -14.9365C36.9678 -21.2587 30.693 -27.6189 33.7658 -33.8079C35.1877 -36.673 37.4325 -37.3298 37.0985 -37.6095C35.5883 -38.8852 -2.93288 -20.0393 0.0927779 -11.8387C1.22723 -8.76317 7.42035 -9.85458 14.5068 -3.23035C17.0835 -0.823385 18.8283 1.87898 21.8304 1.47183Z" stroke="white" stroke-width="0.75" stroke-miterlimit="10"/>
<path d="M23.1374 -4.69361C23.2197 -4.90078 24.7594 -4.89621 25.7056 -6.15165C26.9342 -7.78026 25.6259 -9.94999 26.9316 -12.6667C27.4106 -13.664 27.4302 -13.451 27.7308 -14.2437C29.0214 -17.6532 25.1658 -20.9627 26.2931 -23.9507C26.8205 -25.3571 27.8007 -25.5969 27.5393 -25.6721C25.6285 -25.4008 7.28115 -14.9593 10.1114 -10.7277C11.2165 -9.07426 15.172 -9.15333 19.2694 -6.05885C20.8267 -4.88249 21.8461 -4.02113 23.1374 -4.69361Z" stroke="white" stroke-width="0.75" stroke-miterlimit="10"/>
<path d="M24.4444 -10.8584C23.4302 -13.8222 19.4374 -14.8299 17.9748 -13.734C15.8183 -12.1158 17.6579 -10.0088 20.1314 -9.61669C21.9801 -9.32587 25.605 -7.46656 24.4444 -10.8584Z" stroke="white" stroke-width="0.75" stroke-miterlimit="10"/>
</g>
</g>
<defs>
<clipPath id="clip0_5840_147281">
<rect y="0.109375" width="39" height="39" rx="5" fill="white"/>
</clipPath>
<clipPath id="clip1_5840_147281">
<rect x="-1.5" y="-1.39062" width="42" height="42" rx="5" fill="white"/>
</clipPath>
</defs>
</svg>
