<svg width="39" height="39" viewBox="0 0 39 39" fill="none" xmlns="http://www.w3.org/2000/svg">
<g clip-path="url(#clip0_4444_32776)">
<rect width="42" height="42" rx="5" fill="#D3D8E5"/>
<path d="M-8.48023 43.082C-11.1798 44.2126 -12.2051 46.9842 -10.4407 48.5664C-6.81057 51.8223 8.13407 50.214 8.83722 48.007C9.52992 45.8327 -2.84716 40.722 -8.48023 43.082Z" stroke="#7D8BAF" stroke-width="0.75" stroke-miterlimit="10"/>
<path d="M-1.79112 35.8402C4.3752 33.6796 14.7291 49.0625 10.4553 52.6941C7.82758 54.9273 1.46652 54.6482 -3.72088 53.9143C-8.59067 53.2255 -15.549 50.4087 -17.2657 45.7307C-18.1747 43.2473 -17.6291 39.7091 -15.7039 38.47C-14.2139 37.5112 -12.2025 37.9426 -11.7588 37.7831C-9.64345 38.6608 -9.33304 39.0019 -7.64769 39.2078C-5.44478 39.4771 -3.48693 36.4342 -1.79112 35.8402Z" stroke="#7D8BAF" stroke-width="0.75" stroke-miterlimit="10"/>
<path d="M4.46538 28.2742C11.627 29.4179 19.4094 51.8864 11.6407 57.0571C6.69312 60.3503 -1.93228 58.8962 -7.94437 57.1552C-13.467 55.556 -22.6629 50.2192 -24.5234 42.5709C-25.6049 38.1269 -24.2907 31.8752 -20.5253 30.0668C-17.5239 28.6258 -13.6565 29.8649 -12.9756 29.9603C-8.95075 32.1261 -8.62531 33.228 -5.62841 33.9697C-1.66042 34.9507 1.4724 27.7938 4.46538 28.2742Z" stroke="#7D8BAF" stroke-width="0.75" stroke-miterlimit="10"/>
<path d="M10.2684 20.7585C18.1756 22.8668 23.6361 54.7423 12.3726 61.4698C5.10318 65.8112 -5.78917 63.2069 -12.6214 60.4457C-18.8021 57.9486 -30.197 50.0905 -32.2346 39.4607C-33.4638 33.0502 -31.4125 24.0988 -25.801 21.7134C-21.2919 19.7959 -15.5333 21.7637 -14.6472 22.1872C-8.45213 25.1496 -8.37371 27.5037 -4.06069 28.7813C1.66845 30.4831 6.1272 19.6567 10.2684 20.7585Z" stroke="#7D8BAF" stroke-width="0.75" stroke-miterlimit="10"/>
<path d="M15.7224 13.5847C24.4791 16.6262 27.4996 57.908 12.7555 66.2249C3.15448 71.5924 -10.0002 67.8666 -17.6467 64.0794C-24.4927 60.6895 -38.0722 50.3107 -40.2973 36.6924C-41.6651 28.3212 -38.8858 16.6668 -31.4275 13.7004C-25.4082 11.3084 -17.8042 14.1141 -16.6691 14.7539C-8.68347 19.2554 -8.47697 22.131 -2.84912 23.9354C4.64248 26.358 10.4807 11.7646 15.7224 13.5847Z" stroke="#7D8BAF" stroke-width="0.75" stroke-miterlimit="10"/>
<path d="M-37.2991 5.78281C-29.7722 2.91706 -20.3273 6.55659 -18.9361 7.41664C-9.18142 13.4475 -8.8207 16.8321 -1.88 19.1803C7.37537 22.3113 14.6278 3.9137 20.9268 6.50169C30.6023 10.4771 31.1454 61.2182 12.8888 71.0709C0.976403 77.4997 -14.4662 72.6217 -22.9223 67.8032C-30.4322 63.5245 -46.1865 50.6251 -48.6044 34.0155C-50.1075 23.6844 -46.6054 9.32562 -37.2991 5.78281Z" stroke="#7D8BAF" stroke-width="0.75" stroke-miterlimit="10"/>
<path d="M44.1491 0.554536C41.1843 0.529701 37.6286 -4.61296 40.2877 -5.4717C41.8234 -5.96839 45.8894 -5.18284 47.4865 -3.78493C49.7358 -1.81779 46.1893 0.572181 44.1491 0.554536Z" stroke="#7D8BAF" stroke-width="0.75" stroke-miterlimit="10"/>
<path d="M36.0916 -4.75151C36.3818 -5.44165 37.7404 -5.74815 38.98 -6.5886C41.4947 -8.29432 41.8554 -9.1047 43.6414 -10.1334C44.338 -10.5353 45.2751 -11.0633 46.19 -10.8215C47.5911 -10.451 47.9407 -8.84721 49.7188 -6.02263C52.0243 -2.35239 52.8974 -1.40345 52.2387 0.541464C52.0851 0.99371 51.8864 2.45828 50.7762 3.35166C49.2385 4.58684 47.4362 3.63268 45.183 4.45025C42.4769 5.43055 41.1353 7.17549 39.9609 6.40432C39.1336 5.86123 39.1029 4.37378 38.4834 1.78383C38.0116 -0.189191 37.7149 -1.48384 37.1411 -2.53995C36.453 -3.79735 35.7688 -3.98426 36.0916 -4.75151Z" stroke="#7D8BAF" stroke-width="0.75" stroke-miterlimit="10"/>
<path d="M31.5597 -3.31308C31.61 -4.5365 33.5313 -5.1286 35.1147 -6.89641C38.3618 -10.5229 36.8575 -13.1141 39.4604 -15.7636C40.5648 -16.8883 42.2978 -17.9777 44.0348 -17.7666C46.4997 -17.4667 47.3277 -14.9199 51.1225 -9.75628C56.0838 -3.00527 58.1972 -1.68317 57.7339 1.91454C57.6391 2.6478 57.547 5.46323 55.6081 7.15784C53.0222 9.41777 49.9227 7.36175 45.8744 9.06028C41.3509 10.9555 39.6603 15.0074 38.1351 14.169C37.0758 13.5867 37.4816 11.2418 36.6674 6.66835C36.091 3.41767 35.7348 1.51784 34.5827 -0.0382203C33.1287 -2.00078 31.5054 -1.98445 31.5597 -3.31308Z" stroke="#7D8BAF" stroke-width="0.75" stroke-miterlimit="10"/>
<path d="M27.0232 -1.89034C26.8271 -3.64377 29.3149 -4.52539 31.2447 -7.22057C35.2179 -12.7691 31.7923 -17.1059 35.2748 -21.4101C36.7654 -23.2518 39.3218 -24.8993 41.875 -24.7274C45.4136 -24.4896 46.7213 -21.0193 52.5269 -13.5056C60.1596 -3.68821 63.4467 -1.95961 63.231 3.27193C63.1885 4.29209 63.2081 8.45118 60.4419 10.9503C56.8072 14.233 52.404 11.0712 46.5684 13.6559C40.223 16.4661 38.1893 22.8231 36.3086 21.9199C35.0179 21.2951 35.8446 18.0954 34.8506 11.5385C34.1645 7.01014 33.7508 4.5143 32.023 2.44913C29.7959 -0.212063 27.2329 -0.00162574 27.0232 -1.89034Z" stroke="#7D8BAF" stroke-width="0.75" stroke-miterlimit="10"/>
<path d="M22.4762 -0.471512C22.0364 -2.753 25.0836 -3.9274 27.3643 -7.54798C32.055 -15.0218 26.701 -21.0873 31.0794 -27.0599C32.951 -29.6152 36.3373 -31.8216 39.7054 -31.6922C44.3204 -31.5144 46.0867 -27.1089 53.9182 -17.2582C64.1982 -4.35743 68.672 -2.2269 68.7118 4.62606C68.7197 5.93313 68.8491 11.432 65.2588 14.7388C60.5707 19.0404 54.8722 14.7748 47.2454 18.2483C39.0768 21.9695 36.7 30.6374 34.4716 29.6675C32.949 29.0022 34.1972 24.9451 33.0235 16.4054C32.2256 10.5987 31.757 7.5101 29.4535 4.93322C26.4514 1.57666 22.9493 1.98186 22.4762 -0.471512Z" stroke="#7D8BAF" stroke-width="0.75" stroke-miterlimit="10"/>
<path d="M17.9207 0.946653C18.6572 3.96598 23.097 3.36473 26.8735 7.41664C29.7534 10.5059 30.2769 14.1859 31.1865 21.2716C32.5373 31.7935 30.8696 36.7087 32.6242 37.4139C35.2035 38.451 37.9227 27.4716 47.9159 22.84C57.33 18.4771 64.3354 23.8556 70.0691 18.5267C74.4893 14.418 74.2436 7.57937 74.1861 5.97886C73.8816 -2.49355 68.2282 -5.02796 55.3003 -21.0121C45.4424 -33.1999 43.2192 -38.5392 37.5254 -38.6575C33.343 -38.7444 29.1248 -35.978 26.8735 -32.7104C21.6018 -25.064 28.8948 -17.2667 23.4754 -7.87606C20.849 -3.3255 17.2352 -1.86224 17.9207 0.946653Z" stroke="#7D8BAF" stroke-width="0.75" stroke-miterlimit="10"/>
<path d="M55.5976 49.5435C54.8239 49.1513 53.1993 49.9068 53.0555 51.0838C52.8928 52.419 54.7311 53.5235 55.5388 53.1804C56.4942 52.7739 56.6242 50.0624 55.5976 49.5435Z" stroke="#7D8BAF" stroke-width="0.75" stroke-miterlimit="10"/>
<path d="M57.7776 56.6376C59.0964 55.4043 59.6728 53.1412 60.3321 49.2618C60.9856 45.4151 60.883 42.6611 60.3086 42.4611C59.9956 42.3533 59.1088 43.197 58.3481 43.8152C56.9242 44.9694 54.4867 44.8413 53.8619 44.9661C51.5747 45.4236 50.9029 46.2732 49.9469 47.9005C49.5045 48.652 48.4726 50.3185 48.0184 52.2791C47.3258 55.2482 44.221 56.1631 44.5994 57.3532C44.9176 58.3466 47.9936 58.5877 49.9881 58.6158C52.8464 58.6563 55.7388 58.542 57.7776 56.6376Z" stroke="#7D8BAF" stroke-width="0.75" stroke-miterlimit="10"/>
<path d="M60.0636 59.9529C62.2312 57.7492 63.084 54.0509 64.3975 47.1345C65.7319 40.1848 65.7234 35.418 65.066 35.2402C64.5726 35.1043 62.9748 36.8224 61.6169 38.0504C59.0572 40.375 54.4749 39.9927 53.5306 40.1417C49.2241 40.807 48.1629 42.401 46.4939 45.4138C45.7985 46.6686 43.891 49.7271 43.0219 53.3392C41.6842 58.8727 35.3421 60.3215 35.8668 62.373C36.3053 64.0813 42.1867 64.3434 45.8874 64.2029C51.1127 63.9996 56.4007 63.6781 60.0636 59.9529Z" stroke="#7D8BAF" stroke-width="0.75" stroke-miterlimit="10"/>
<path d="M62.337 63.2468C65.3555 60.0732 66.4749 54.9371 68.4498 44.9857C70.4553 34.9311 70.5488 28.1624 69.8103 27.9938C69.134 27.837 66.8265 30.425 64.8752 32.266C61.1862 35.767 54.4534 35.1232 53.1889 35.2918C46.8644 36.1362 45.4078 38.4974 43.0304 42.9022C42.0815 44.6596 39.2996 49.1108 38.0142 54.3724C36.0335 62.471 26.4533 64.4525 27.1231 67.366C27.6825 69.7893 36.3707 70.0827 41.7763 69.7618C49.3672 69.3338 57.0588 68.7966 62.337 63.2468Z" stroke="#7D8BAF" stroke-width="0.75" stroke-miterlimit="10"/>
<path d="M64.6033 66.5386C68.4746 62.3952 69.8593 55.8207 72.4955 42.8343C75.1748 29.676 75.3709 20.9075 74.5488 20.7448C73.6888 20.5729 70.6703 24.0203 68.1269 26.4757C63.3016 31.1452 54.4259 30.2466 52.8412 30.4393C44.4988 31.4517 42.6357 34.586 39.5603 40.3874C38.354 42.6461 34.7017 48.4913 33.0013 55.403C30.3756 66.0661 17.5574 68.5809 18.3742 72.3564C19.0532 75.4933 30.5481 75.8064 37.6593 75.3188C47.6126 74.6477 57.7123 73.9151 64.6033 66.5386Z" stroke="#7D8BAF" stroke-width="0.75" stroke-miterlimit="10"/>
<path d="M52.4903 25.5849C42.1305 26.7612 39.8779 30.6825 36.0877 37.8713C34.6304 40.6351 30.1004 47.8704 27.9844 56.4317C24.717 69.6605 8.65882 72.708 9.62141 77.3448C10.4213 81.2006 24.7222 81.5274 33.5391 80.8739C45.8587 79.9589 58.3645 79.0322 66.867 69.8292C71.5911 64.7152 73.2405 56.7042 76.5387 40.6815C79.8865 24.419 80.1851 13.6527 79.2833 13.4945C78.2377 13.3115 74.5128 17.6118 71.3761 20.6834C65.4137 26.5208 54.3958 25.3686 52.4903 25.5849Z" stroke="#7D8BAF" stroke-width="0.75" stroke-miterlimit="10"/>
<path d="M-31.7444 -5.85011C-30.5682 -1.34072 -22.1251 -3.45882 -12.0744 6.69775C-8.47304 10.3373 -6.0584 14.1441 -1.29185 14.7362C-0.810884 14.7957 3.96416 15.3179 7.3342 12.2528C11.574 8.39694 8.98622 3.04776 13.9344 -4.41233C15.757 -7.16044 16.0602 -6.36248 17.3979 -8.5296C23.1068 -17.7804 14.3997 -27.1717 19.4237 -36.5662C21.7364 -40.8906 25.1744 -41.8834 24.8477 -42.448C23.4375 -44.8707 -34.923 -18.0013 -31.7444 -5.85011Z" stroke="#7D8BAF" stroke-width="0.75" stroke-miterlimit="10"/>
<path d="M0.0151243 8.57144C0.303966 8.53223 3.45247 8.76749 5.61225 6.60037C8.34318 3.86403 6.39644 0.096408 9.52535 -4.99005C10.6768 -6.86308 10.8369 -6.35528 11.6564 -7.83684C15.1525 -14.1591 8.87774 -20.5193 11.9504 -26.7083C13.3724 -29.5734 15.6172 -30.2302 15.2832 -30.5099C13.773 -31.7856 -24.7482 -12.9396 -21.7225 -4.7391C-20.5881 -1.66356 -14.395 -2.75497 -7.30853 3.86926C-4.73182 6.27622 -2.987 8.97859 0.0151243 8.57144Z" stroke="#7D8BAF" stroke-width="0.75" stroke-miterlimit="10"/>
<path d="M1.3221 2.406C1.40444 2.19883 2.94406 2.2034 3.89031 0.94796C5.11887 -0.680648 3.81058 -2.85038 5.11625 -5.56712C5.59526 -6.56442 5.61486 -6.35136 5.91547 -7.1441C7.20611 -10.5536 3.35053 -13.8631 4.47779 -16.851C5.00516 -18.2574 5.98539 -18.4973 5.724 -18.5725C3.8132 -18.3012 -14.5342 -7.85972 -11.7039 -3.62809C-10.5988 -1.97465 -6.64328 -2.05372 -2.5459 1.04076C-0.988639 2.21712 0.0308068 3.07848 1.3221 2.406Z" stroke="#7D8BAF" stroke-width="0.75" stroke-miterlimit="10"/>
<path d="M2.62908 -3.75879C1.61486 -6.72257 -2.37795 -7.73032 -3.84046 -6.63435C-5.99697 -5.01619 -4.1574 -2.9092 -1.68395 -2.51708C0.164773 -2.22626 3.78967 -0.36695 2.62908 -3.75879Z" stroke="#7D8BAF" stroke-width="0.75" stroke-miterlimit="10"/>
</g>
<defs>
<clipPath id="clip0_4444_32776">
<rect width="39" height="39" rx="5" fill="white"/>
</clipPath>
</defs>
</svg>
