<svg width="39" height="39" viewBox="0 0 39 39" fill="none" xmlns="http://www.w3.org/2000/svg">
<g clip-path="url(#clip0_12791_64313)">
<g clip-path="url(#clip1_12791_64313)">
<rect x="-1.5" y="-1.5" width="42" height="42" rx="5" fill="#31BA9A"/>
<path d="M-28.8212 40.6406C-31.5207 41.7712 -32.5461 44.5428 -30.7816 46.125C-27.1515 49.3809 -12.2069 47.7726 -11.5037 45.5656C-10.811 43.3913 -23.1881 38.2806 -28.8212 40.6406Z" stroke="white" stroke-width="0.75" stroke-miterlimit="10"/>
<path d="M-22.1321 33.3987C-15.9657 31.2382 -5.61186 46.621 -9.88568 50.2527C-12.5134 52.4859 -18.8744 52.2068 -24.0618 51.4729C-28.9316 50.7841 -35.89 47.9673 -37.6067 43.2893C-38.5157 40.8059 -37.97 37.2677 -36.0448 36.0286C-34.5549 35.0698 -32.5435 35.5012 -32.0997 35.3417C-29.9844 36.2194 -29.674 36.5605 -27.9886 36.7664C-25.7857 37.0357 -23.8279 33.9928 -22.1321 33.3987Z" stroke="white" stroke-width="0.75" stroke-miterlimit="10"/>
<path d="M-15.8756 25.8328C-8.71398 26.9765 -0.931584 49.445 -8.70026 54.6157C-13.6478 57.9089 -22.2732 56.4548 -28.2853 54.7138C-33.8079 53.1146 -43.0038 47.7778 -44.8643 40.1295C-45.9459 35.6855 -44.6317 29.4337 -40.8663 27.6254C-37.8648 26.1844 -33.9975 27.4235 -33.3165 27.5189C-29.2917 29.6847 -28.9662 30.7866 -25.9693 31.5283C-22.0014 32.5093 -18.8685 25.3524 -15.8756 25.8328Z" stroke="white" stroke-width="0.75" stroke-miterlimit="10"/>
<path d="M-10.0726 18.3171C-2.16537 20.4254 3.29518 52.3009 -7.96835 59.0284C-15.2378 63.3698 -26.1301 60.7655 -32.9623 58.0043C-39.143 55.5072 -50.5379 47.6491 -52.5755 37.0193C-53.8047 30.6088 -51.7534 21.6574 -46.1419 19.272C-41.6328 17.3545 -35.8743 19.3223 -34.9881 19.7458C-28.7931 22.7082 -28.7147 25.0623 -24.4016 26.3399C-18.6725 28.0417 -14.2137 17.2153 -10.0726 18.3171Z" stroke="white" stroke-width="0.75" stroke-miterlimit="10"/>
<path d="M-4.61856 11.1433C4.13819 14.1848 7.15861 55.4666 -7.58541 63.7835C-17.1865 69.151 -30.3412 65.4252 -37.9877 61.638C-44.8336 58.2481 -58.4131 47.8693 -60.6382 34.251C-62.006 25.8798 -59.2267 14.2254 -51.7684 11.259C-45.7492 8.86703 -38.1452 11.6727 -37.01 12.3125C-29.0244 16.814 -28.8179 19.6896 -23.1901 21.494C-15.6985 23.9166 -9.8602 9.3232 -4.61856 11.1433Z" stroke="white" stroke-width="0.75" stroke-miterlimit="10"/>
<path d="M-57.64 3.3414C-50.1131 0.475653 -40.6683 4.11519 -39.277 4.97524C-29.5224 11.0061 -29.1616 14.3907 -22.2209 16.7389C-12.9656 19.8699 -5.71316 1.47229 0.585821 4.06029C10.2614 8.03574 10.8044 58.7768 -7.45209 68.6295C-19.3645 75.0583 -34.8071 70.1803 -43.2633 65.3618C-50.7732 61.0831 -66.5275 48.1836 -68.9454 31.5741C-70.4484 21.243 -66.9464 6.88421 -57.64 3.3414Z" stroke="white" stroke-width="0.75" stroke-miterlimit="10"/>
<path d="M23.8082 -1.88687C20.8433 -1.9117 17.2877 -7.05436 19.9467 -7.91311C21.4824 -8.40979 25.5484 -7.62425 27.1456 -6.22634C29.3949 -4.2592 25.8484 -1.86923 23.8082 -1.88687Z" stroke="white" stroke-width="0.75" stroke-miterlimit="10"/>
<path d="M15.7507 -7.19292C16.0408 -7.88305 17.3994 -8.18956 18.6391 -9.03C21.1537 -10.7357 21.5144 -11.5461 23.3004 -12.5748C23.9971 -12.9767 24.9342 -13.5048 25.849 -13.2629C27.2501 -12.8924 27.5997 -11.2886 29.3779 -8.46404C31.6834 -4.79379 32.5565 -3.84486 31.8977 -1.89994C31.7442 -1.4477 31.5455 0.0168723 30.4352 0.910253C28.8976 2.14543 27.0952 1.19127 24.842 2.00885C22.1359 2.98915 20.7943 4.73408 19.62 3.96291C18.7927 3.41982 18.762 1.93238 18.1425 -0.657577C17.6706 -2.6306 17.3739 -3.92525 16.8002 -4.98136C16.1121 -6.23876 15.4279 -6.42567 15.7507 -7.19292Z" stroke="white" stroke-width="0.75" stroke-miterlimit="10"/>
<path d="M11.2187 -5.75449C11.2691 -6.9779 13.1903 -7.57 14.7737 -9.33781C18.0209 -12.9643 16.5166 -15.5555 19.1194 -18.205C20.2238 -19.3297 21.9569 -20.4191 23.6938 -20.208C26.1588 -19.9081 26.9868 -17.3613 30.7816 -12.1977C35.7429 -5.44667 37.8562 -4.12458 37.3929 -0.526871C37.2982 0.206394 37.206 3.02182 35.2671 4.71644C32.6813 6.97636 29.5818 4.92034 25.5334 6.61888C21.01 8.51413 19.3194 12.566 17.7941 11.7276C16.7348 11.1453 17.1407 8.80037 16.3264 4.22694C15.75 0.97626 15.3939 -0.923562 14.2418 -2.47963C12.7878 -4.44219 11.1645 -4.42585 11.2187 -5.75449Z" stroke="white" stroke-width="0.75" stroke-miterlimit="10"/>
<path d="M6.68222 -4.33175C6.48617 -6.08518 8.974 -6.9668 10.9038 -9.66197C14.877 -15.2105 11.4514 -19.5473 14.9338 -23.8515C16.4244 -25.6932 18.9809 -27.3407 21.5341 -27.1688C25.0727 -26.931 26.3803 -23.4607 32.1859 -15.947C39.8187 -6.12962 43.1057 -4.40102 42.8901 0.83052C42.8476 1.85069 42.8672 6.00978 40.101 8.50889C36.4663 11.7916 32.0631 8.6298 26.2274 11.2145C19.882 14.0247 17.8484 20.3816 15.9676 19.4785C14.677 18.8537 15.5037 15.654 14.5097 9.09707C13.8235 4.56873 13.4099 2.07289 11.6821 0.00772259C9.45497 -2.65347 6.89199 -2.44303 6.68222 -4.33175Z" stroke="white" stroke-width="0.75" stroke-miterlimit="10"/>
<path d="M2.13525 -2.91292C1.69545 -5.19441 4.74267 -6.36881 7.02335 -9.98939C11.7141 -17.4632 6.36005 -23.5287 10.7384 -29.5013C12.61 -32.0566 15.9964 -34.263 19.3645 -34.1336C23.9794 -33.9558 25.7458 -29.5503 33.5772 -19.6996C43.8572 -6.79884 48.331 -4.66831 48.3709 2.18465C48.3787 3.49172 48.5081 8.99055 44.9179 12.2974C40.2297 16.599 34.5313 12.3334 26.9044 15.8069C18.7358 19.5281 16.3591 28.196 14.1307 27.2261C12.6081 26.5608 13.8562 22.5037 12.6826 13.964C11.8846 8.1573 11.4161 5.0687 9.11255 2.49181C6.11042 -0.864742 2.60837 -0.459551 2.13525 -2.91292Z" stroke="white" stroke-width="0.75" stroke-miterlimit="10"/>
<path d="M-2.42023 -1.49475C-1.68374 1.52457 2.75606 0.92332 6.53257 4.97523C9.41249 8.06449 9.93594 11.7445 10.8456 18.8302C12.1964 29.3521 10.5286 34.2673 12.2833 34.9725C14.8626 36.0096 17.5818 25.0302 27.5749 20.3986C36.9891 16.0356 43.9945 21.4142 49.7282 16.0853C54.1484 11.9765 53.9027 5.13796 53.8452 3.53746C53.5406 -4.93496 47.8873 -7.46936 34.9593 -23.4535C25.1015 -35.6413 22.8783 -40.9806 17.1844 -41.0989C13.0021 -41.1858 8.78384 -38.4194 6.53257 -35.1518C1.26088 -27.5054 8.55381 -19.7081 3.13443 -10.3175C0.508056 -5.76691 -3.10574 -4.30364 -2.42023 -1.49475Z" stroke="white" stroke-width="0.75" stroke-miterlimit="10"/>
<path d="M35.2567 47.102C34.4829 46.7099 32.8584 47.4654 32.7146 48.6424C32.5519 49.9776 34.3901 51.0821 35.1979 50.739C36.1533 50.3325 36.2833 47.621 35.2567 47.102Z" stroke="white" stroke-width="0.75" stroke-miterlimit="10"/>
<path d="M37.4367 54.1962C38.7554 52.9629 39.3318 50.6998 39.9912 46.8204C40.6447 42.9737 40.5421 40.2197 39.9677 40.0197C39.6547 39.9119 38.7679 40.7556 38.0072 41.3738C36.5833 42.528 34.1457 42.3999 33.521 42.5247C31.2338 42.9822 30.562 43.8318 29.6059 45.4591C29.1635 46.2106 28.1317 47.8771 27.6775 49.8377C26.9848 52.8067 23.8801 53.7217 24.2584 54.9118C24.5767 55.9051 27.6527 56.1463 29.6471 56.1744C32.5055 56.2149 35.3978 56.1006 37.4367 54.1962Z" stroke="white" stroke-width="0.75" stroke-miterlimit="10"/>
<path d="M39.7226 57.5115C41.8902 55.3078 42.743 51.6095 44.0565 44.6931C45.391 37.7434 45.3825 32.9766 44.7251 32.7988C44.2317 32.6629 42.6339 34.381 41.276 35.609C38.7162 37.9336 34.134 37.5513 33.1897 37.7003C28.8832 38.3656 27.8219 39.9596 26.1529 42.9724C25.4576 44.2271 23.5501 47.2857 22.6809 50.8978C21.3432 56.4312 15.0011 57.8801 15.5259 59.9316C15.9644 61.6399 21.8458 61.902 25.5465 61.7615C30.7718 61.5582 36.0598 61.2367 39.7226 57.5115Z" stroke="white" stroke-width="0.75" stroke-miterlimit="10"/>
<path d="M41.9961 60.8054C45.0146 57.6318 46.134 52.4957 48.1088 42.5443C50.1144 32.4897 50.2078 25.721 49.4694 25.5524C48.793 25.3956 46.4856 27.9836 44.5342 29.8246C40.8453 33.3255 34.1124 32.6818 32.8479 32.8504C26.5234 33.6948 25.0668 36.056 22.6894 40.4608C21.7406 42.2182 18.9587 46.6694 17.6732 51.931C15.6925 60.0296 6.11237 62.0111 6.7822 64.9246C7.34158 67.3479 16.0297 67.6413 21.4354 67.3204C29.0263 66.8924 36.7179 66.3552 41.9961 60.8054Z" stroke="white" stroke-width="0.75" stroke-miterlimit="10"/>
<path d="M44.2624 64.0972C48.1337 59.9538 49.5184 53.3792 52.1546 40.3929C54.8339 27.2346 55.0299 18.4661 54.2078 18.3034C53.3478 18.1315 50.3294 21.5789 47.786 24.0343C42.9606 28.7038 34.085 27.8051 32.5003 27.9979C24.1578 29.0103 22.2947 32.1446 19.2194 37.946C18.0131 40.2046 14.3607 46.0499 12.6603 52.9616C10.0346 63.6247 -2.78357 66.1395 -1.96671 69.915C-1.28774 73.0519 10.2071 73.365 17.3184 72.8774C27.2717 72.2063 37.3714 71.4736 44.2624 64.0972Z" stroke="white" stroke-width="0.75" stroke-miterlimit="10"/>
<path d="M32.1493 23.1435C21.7896 24.3198 19.537 28.2411 15.7468 35.4299C14.2895 38.1937 9.7595 45.429 7.6435 53.9903C4.37606 67.2191 -11.6821 70.2666 -10.7195 74.9034C-9.91967 78.7592 4.38128 79.086 13.1982 78.4325C25.5177 77.5175 38.0235 76.5908 46.5261 67.3877C51.2502 62.2738 52.8996 54.2628 56.1977 38.2401C59.5455 21.9776 59.8442 11.2113 58.9424 11.0531C57.8968 10.8701 54.1719 15.1704 51.0352 18.242C45.0727 24.0793 34.0549 22.9272 32.1493 23.1435Z" stroke="white" stroke-width="0.75" stroke-miterlimit="10"/>
<path d="M-52.0854 -8.29151C-50.9091 -3.78213 -42.466 -5.90023 -32.4154 4.25634C-28.814 7.89588 -26.3993 11.7027 -21.6328 12.2948C-21.1518 12.3543 -16.3768 12.8765 -13.0067 9.81138C-8.76691 5.95553 -11.3547 0.606356 -6.40651 -6.85374C-4.58393 -9.60185 -4.28071 -8.80388 -2.94301 -10.971C2.76586 -20.2218 -5.94122 -29.6131 -0.9172 -39.0076C1.3955 -43.3321 4.83351 -44.3248 4.50676 -44.8894C3.09653 -47.3121 -55.2639 -20.4427 -52.0854 -8.29151Z" stroke="white" stroke-width="0.75" stroke-miterlimit="10"/>
<path d="M-20.3258 6.13003C-20.037 6.09082 -16.8885 6.32609 -14.7287 4.15897C-11.9978 1.42262 -13.9445 -2.345 -10.8156 -7.43146C-9.66415 -9.30448 -9.50404 -8.79669 -8.68457 -10.2783C-5.1884 -16.6005 -11.4632 -22.9607 -8.3905 -29.1497C-6.96851 -32.0148 -4.72378 -32.6716 -5.05771 -32.9513C-6.56792 -34.227 -45.0891 -15.3811 -42.0635 -7.1805C-40.929 -4.10497 -34.7359 -5.19637 -27.6495 1.42785C-25.0728 3.83482 -23.3279 6.53718 -20.3258 6.13003Z" stroke="white" stroke-width="0.75" stroke-miterlimit="10"/>
<path d="M-19.0188 -0.0354106C-18.9365 -0.242581 -17.3969 -0.238007 -16.4506 -1.49345C-15.2221 -3.12205 -16.5304 -5.29179 -15.2247 -8.00853C-14.7457 -9.00582 -14.7261 -8.79277 -14.4255 -9.58551C-13.1348 -12.995 -16.9904 -16.3045 -15.8631 -19.2924C-15.3358 -20.6989 -14.3555 -20.9387 -14.6169 -21.0139C-16.5277 -20.7426 -34.8751 -10.3011 -32.0448 -6.06949C-30.9398 -4.41605 -26.9842 -4.49513 -22.8868 -1.40064C-21.3296 -0.224283 -20.3101 0.637076 -19.0188 -0.0354106Z" stroke="white" stroke-width="0.75" stroke-miterlimit="10"/>
<path d="M-17.7119 -6.2002C-18.7261 -9.16398 -22.7189 -10.1717 -24.1814 -9.07575C-26.3379 -7.4576 -24.4983 -5.35061 -22.0249 -4.95848C-20.1762 -4.66766 -16.5513 -2.80836 -17.7119 -6.2002Z" stroke="white" stroke-width="0.75" stroke-miterlimit="10"/>
</g>
</g>
<defs>
<clipPath id="clip0_12791_64313">
<rect width="39" height="39" rx="5" fill="white"/>
</clipPath>
<clipPath id="clip1_12791_64313">
<rect x="-1.5" y="-1.5" width="42" height="42" rx="5" fill="white"/>
</clipPath>
</defs>
</svg>
