<svg width="39" height="40" viewBox="0 0 39 40" fill="none" xmlns="http://www.w3.org/2000/svg">
<g clip-path="url(#clip0_5840_147291)">
<g clip-path="url(#clip1_5840_147291)">
<g clip-path="url(#clip2_5840_147291)">
<rect x="-1.5" y="-1.39062" width="42" height="42" rx="5" fill="#61A744"/>
<path d="M-12.8075 61.9472C-15.5071 63.0778 -16.5324 65.8495 -14.768 67.4317C-11.1378 70.6876 3.8068 69.0792 4.50995 66.8722C5.20265 64.6979 -7.17443 59.5873 -12.8075 61.9472Z" stroke="white" stroke-width="0.75" stroke-miterlimit="10"/>
<path d="M-6.11839 54.7054C0.0479279 52.5448 10.4018 67.9277 6.12799 71.5594C3.50031 73.7925 -2.86075 73.5134 -8.04815 72.7795C-12.9179 72.0907 -19.8763 69.274 -21.593 64.596C-22.502 62.1125 -21.9563 58.5743 -20.0312 57.3352C-18.5412 56.3765 -16.5298 56.8078 -16.0861 56.6483C-13.9707 57.526 -13.6603 57.8672 -11.975 58.073C-9.77205 58.3423 -7.8142 55.2994 -6.11839 54.7054Z" stroke="white" stroke-width="0.75" stroke-miterlimit="10"/>
<path d="M0.138106 47.1394C7.29969 48.2831 15.0821 70.7516 7.31341 75.9224C2.36585 79.2155 -6.25955 77.7614 -12.2716 76.0204C-17.7943 74.4212 -26.9902 69.0844 -28.8507 61.4361C-29.9322 56.9921 -28.618 50.7404 -24.8526 48.9321C-21.8511 47.491 -17.9838 48.7301 -17.3029 48.8255C-13.278 50.9913 -12.9526 52.0932 -9.95568 52.835C-5.98769 53.8159 -2.85487 46.6591 0.138106 47.1394Z" stroke="white" stroke-width="0.75" stroke-miterlimit="10"/>
<path d="M5.94109 39.6238C13.8483 41.7321 19.3089 73.6075 8.04532 80.335C0.775912 84.6765 -10.1164 82.0721 -16.9487 79.311C-23.1294 76.8138 -34.5242 68.9557 -36.5618 58.326C-37.791 51.9155 -35.7397 42.964 -30.1282 40.5786C-25.6192 38.6611 -19.8606 40.6289 -18.9745 41.0524C-12.7794 44.0149 -12.701 46.3689 -8.38796 47.6466C-2.65882 49.3484 1.79993 38.5219 5.94109 39.6238Z" stroke="white" stroke-width="0.75" stroke-miterlimit="10"/>
<path d="M11.3951 32.4499C20.1519 35.4915 23.1723 76.7733 8.42827 85.0902C-1.17279 90.4576 -14.3275 86.7318 -21.974 82.9446C-28.8199 79.5547 -42.3994 69.1759 -44.6246 55.5576C-45.9923 47.1865 -43.213 35.532 -35.7548 32.5656C-29.7355 30.1737 -22.1315 32.9793 -20.9964 33.6191C-13.0107 38.1206 -12.8042 40.9962 -7.17639 42.8006C0.315205 45.2233 6.15348 30.6298 11.3951 32.4499Z" stroke="white" stroke-width="0.75" stroke-miterlimit="10"/>
<path d="M-41.6264 24.648C-34.0995 21.7823 -24.6546 25.4218 -23.2633 26.2819C-13.5087 32.3127 -13.148 35.6973 -6.20727 38.0455C3.0481 41.1766 10.3005 22.7789 16.5995 25.3669C26.275 29.3424 26.8181 80.0834 8.56158 89.9361C-3.35087 96.3649 -18.7935 91.4869 -27.2496 86.6684C-34.7595 82.3897 -50.5138 69.4903 -52.9317 52.8807C-54.4347 42.5496 -50.9327 28.1909 -41.6264 24.648Z" stroke="white" stroke-width="0.75" stroke-miterlimit="10"/>
<path d="M39.8219 19.4198C36.857 19.3949 33.3014 14.2523 35.9604 13.3935C37.4961 12.8968 41.5621 13.6824 43.1592 15.0803C45.4085 17.0474 41.8621 19.4374 39.8219 19.4198Z" stroke="white" stroke-width="0.75" stroke-miterlimit="10"/>
<path d="M31.7643 14.1137C32.0545 13.4236 33.4131 13.1171 34.6528 12.2766C37.1674 10.5709 37.5281 9.76053 39.3141 8.73187C40.0107 8.32995 40.9478 7.80189 41.8627 8.0437C43.2638 8.41425 43.6134 10.018 45.3916 12.8426C47.6971 16.5128 48.5701 17.4618 47.9114 19.4067C47.7578 19.8589 47.5592 21.3235 46.4489 22.2169C44.9112 23.4521 43.1089 22.4979 40.8557 23.3155C38.1496 24.2958 36.808 26.0407 35.6337 25.2696C34.8063 24.7265 34.7756 23.239 34.1561 20.6491C33.6843 18.676 33.3876 17.3814 32.8139 16.3253C32.1257 15.0679 31.4415 14.881 31.7643 14.1137Z" stroke="white" stroke-width="0.75" stroke-miterlimit="10"/>
<path d="M27.2324 15.5522C27.2827 14.3287 29.204 13.7366 30.7874 11.9688C34.0346 8.34237 32.5302 5.7511 35.1331 3.10167C36.2375 1.97694 37.9705 0.8875 39.7075 1.09859C42.1725 1.39856 43.0004 3.94538 46.7953 9.10896C51.7565 15.86 53.8699 17.1821 53.4066 20.7798C53.3118 21.513 53.2197 24.3285 51.2808 26.0231C48.6949 28.283 45.5954 26.227 41.5471 27.9255C37.0236 29.8208 35.3331 33.8727 33.8078 33.0342C32.7485 32.4519 33.1543 30.107 32.3401 25.5336C31.7637 22.2829 31.4076 20.3831 30.2555 18.827C28.8014 16.8645 27.1782 16.8808 27.2324 15.5522Z" stroke="white" stroke-width="0.75" stroke-miterlimit="10"/>
<path d="M22.6959 16.9749C22.4998 15.2215 24.9877 14.3398 26.9174 11.6447C30.8906 6.09616 27.4651 1.75931 30.9475 -2.54486C32.4381 -4.38652 34.9945 -6.03408 37.5477 -5.8622C41.0864 -5.62432 42.394 -2.15405 48.1996 5.35963C55.8323 15.177 59.1194 16.9056 58.9038 22.1372C58.8613 23.1573 58.8809 27.3164 56.1147 29.8155C52.4799 33.0982 48.0767 29.9364 42.2411 32.5212C35.8957 35.3314 33.8621 41.6883 31.9813 40.7851C30.6907 40.1603 31.5173 36.9606 30.5234 30.4037C29.8372 25.8754 29.4236 23.3795 27.6957 21.3144C25.4686 18.6532 22.9057 18.8636 22.6959 16.9749Z" stroke="white" stroke-width="0.75" stroke-miterlimit="10"/>
<path d="M18.1489 18.3937C17.7091 16.1122 20.7563 14.9378 23.037 11.3172C27.7278 3.84343 22.3737 -2.22202 26.7521 -8.19467C28.6237 -10.75 32.0101 -12.9563 35.3782 -12.8269C39.9931 -12.6492 41.7595 -8.24368 49.5909 1.60704C59.8709 14.5078 64.3447 16.6383 64.3846 23.4913C64.3924 24.7984 64.5218 30.2972 60.9315 33.6041C56.2434 37.9056 50.545 33.64 42.9181 37.1136C34.7495 40.8348 32.3728 49.5026 30.1444 48.5328C28.6217 47.8675 29.8699 43.8103 28.6962 35.2706C27.8983 29.4639 27.4298 26.3753 25.1262 23.7985C22.1241 20.4419 18.622 20.8471 18.1489 18.3937Z" stroke="white" stroke-width="0.75" stroke-miterlimit="10"/>
<path d="M13.5934 19.8119C14.3299 22.8312 18.7697 22.23 22.5462 26.2819C25.4262 29.3711 25.9496 33.0512 26.8593 40.1368C28.21 50.6587 26.5423 55.5739 28.2969 56.2791C30.8763 57.3163 33.5954 46.3369 43.5886 41.7053C53.0027 37.3423 60.0081 42.7209 65.7419 37.392C70.1621 33.2832 69.9163 26.4446 69.8588 24.8441C69.5543 16.3717 63.901 13.8373 50.973 -2.14686C41.1151 -14.3346 38.892 -19.674 33.1981 -19.7923C29.0158 -19.8792 24.7975 -17.1128 22.5462 -13.8451C17.2745 -6.19877 24.5675 1.59854 19.1481 10.9892C16.5217 15.5397 12.9079 17.003 13.5934 19.8119Z" stroke="white" stroke-width="0.75" stroke-miterlimit="10"/>
<path d="M51.2703 68.4087C50.4966 68.0166 48.872 68.7721 48.7283 69.9491C48.5655 71.2842 50.4038 72.3887 51.2115 72.0456C52.1669 71.6391 52.297 68.9276 51.2703 68.4087Z" stroke="white" stroke-width="0.75" stroke-miterlimit="10"/>
<path d="M53.4504 75.5028C54.7691 74.2696 55.3455 72.0064 56.0049 68.127C56.6584 64.2803 56.5558 61.5263 55.9813 61.3263C55.6683 61.2185 54.7815 62.0622 54.0209 62.6805C52.5969 63.8346 50.1594 63.7065 49.5347 63.8313C47.2475 64.2888 46.5757 65.1384 45.6196 66.7657C45.1772 67.5173 44.1454 69.1838 43.6912 71.1444C42.9985 74.1134 39.8938 75.0283 40.2721 76.2184C40.5904 77.2118 43.6663 77.453 45.6608 77.4811C48.5192 77.5216 51.4115 77.4072 53.4504 75.5028Z" stroke="white" stroke-width="0.75" stroke-miterlimit="10"/>
<path d="M55.7363 78.8182C57.9039 76.6145 58.7567 72.9161 60.0702 65.9998C61.4046 59.0501 61.3961 54.2832 60.7387 54.1054C60.2453 53.9695 58.6476 55.6876 57.2896 56.9156C54.7299 59.2402 50.1476 58.8579 49.2033 59.0069C44.8969 59.6722 43.8356 61.2662 42.1666 64.279C41.4713 65.5338 39.5637 68.5923 38.6946 72.2044C37.3569 77.7379 31.0148 79.1868 31.5396 81.2382C31.978 82.9466 37.8594 83.2086 41.5601 83.0681C46.7854 82.8649 52.0735 82.5433 55.7363 78.8182Z" stroke="white" stroke-width="0.75" stroke-miterlimit="10"/>
<path d="M58.0098 82.112C61.0282 78.9384 62.1477 73.8023 64.1225 63.8509C66.1281 53.7963 66.2215 47.0277 65.4831 46.859C64.8067 46.7022 62.4992 49.2902 60.5479 51.1312C56.859 54.6322 50.1261 53.9885 48.8616 54.1571C42.5371 55.0014 41.0805 57.3627 38.7031 61.7675C37.7542 63.5248 34.9723 67.9761 33.6869 73.2377C31.7062 81.3363 22.126 83.3178 22.7959 86.2312C23.3553 88.6545 32.0434 88.948 37.449 88.6271C45.04 88.199 52.7315 87.6618 58.0098 82.112Z" stroke="white" stroke-width="0.75" stroke-miterlimit="10"/>
<path d="M60.2761 85.4038C64.1473 81.2604 65.5321 74.6859 68.1682 61.6995C70.8476 48.5413 71.0436 39.7728 70.2215 39.61C69.3615 39.4382 66.3431 42.8856 63.7997 45.3409C58.9743 50.0104 50.0986 49.1118 48.5139 49.3046C40.1715 50.3169 38.3084 53.4513 35.2331 59.2527C34.0267 61.5113 30.3744 67.3565 28.674 74.2683C26.0483 84.9313 13.2301 87.4461 14.047 91.2216C14.7259 94.3586 26.2208 94.6716 33.3321 94.1841C43.2854 93.5129 53.385 92.7803 60.2761 85.4038Z" stroke="white" stroke-width="0.75" stroke-miterlimit="10"/>
<path d="M48.163 44.4501C37.8032 45.6265 35.5507 49.5477 31.7604 56.7366C30.3032 59.5004 25.7732 66.7356 23.6572 75.2969C20.3897 88.5258 4.33155 91.5732 5.29413 96.21C6.09401 100.066 20.395 100.393 29.2118 99.7391C41.5314 98.8242 54.0372 97.8975 62.5398 88.6944C67.2638 83.5805 68.9132 75.5695 72.2114 59.5468C75.5592 43.2842 75.8579 32.5179 74.956 32.3597C73.9105 32.1768 70.1856 36.477 67.0488 39.5486C61.0864 45.386 50.0686 44.2338 48.163 44.4501Z" stroke="white" stroke-width="0.75" stroke-miterlimit="10"/>
<path d="M-36.0717 13.0151C-34.8954 17.5245 -26.4523 15.4064 -16.4017 25.563C-12.8003 29.2025 -10.3857 33.0094 -5.61912 33.6015C-5.13815 33.6609 -0.363112 34.1831 3.00693 31.118C7.24677 27.2622 4.65895 21.913 9.60716 14.4529C11.4297 11.7048 11.733 12.5028 13.0707 10.3356C18.7795 1.08486 10.0724 -8.30642 15.0965 -17.701C17.4092 -22.0254 20.8472 -23.0181 20.5204 -23.5828C19.1102 -26.0054 -39.2503 0.863968 -36.0717 13.0151Z" stroke="white" stroke-width="0.75" stroke-miterlimit="10"/>
<path d="M-4.31215 27.4367C-4.0233 27.3975 -0.874796 27.6327 1.28498 25.4656C4.01591 22.7293 2.06917 18.9616 5.19808 13.8752C6.34952 12.0022 6.50963 12.51 7.3291 11.0284C10.8253 4.7061 4.55047 -1.6541 7.62317 -7.84307C9.04517 -10.7082 11.2899 -11.365 10.956 -11.6447C9.44575 -12.9204 -29.0755 5.92559 -26.0498 14.1261C-24.9153 17.2017 -18.7222 16.1103 -11.6358 22.7345C-9.05909 25.1415 -7.31427 27.8438 -4.31215 27.4367Z" stroke="white" stroke-width="0.75" stroke-miterlimit="10"/>
<path d="M-3.00517 21.2712C-2.92283 21.0641 -1.38321 21.0686 -0.436962 19.8132C0.791597 18.1846 -0.516688 16.0149 0.788983 13.2981C1.26799 12.3008 1.28759 12.5139 1.5882 11.7211C2.87884 8.31165 -0.976744 5.00215 0.150524 2.01419C0.677889 0.607786 1.65812 0.367938 1.39673 0.292781C-0.514072 0.563998 -18.8614 11.0055 -16.0312 15.2371C-14.9261 16.8906 -10.9705 16.8115 -6.87317 19.906C-5.31591 21.0824 -4.29646 21.9437 -3.00517 21.2712Z" stroke="white" stroke-width="0.75" stroke-miterlimit="10"/>
<path d="M-1.69819 15.1064C-2.71241 12.1427 -6.70522 11.1349 -8.16773 12.2309C-10.3242 13.849 -8.48467 15.956 -6.01122 16.3482C-4.1625 16.639 -0.537597 18.4983 -1.69819 15.1064Z" stroke="white" stroke-width="0.75" stroke-miterlimit="10"/>
</g>
</g>
</g>
<defs>
<clipPath id="clip0_5840_147291">
<rect y="0.109375" width="39" height="39" rx="5" fill="white"/>
</clipPath>
<clipPath id="clip1_5840_147291">
<rect y="0.109375" width="39" height="39" rx="5" fill="white"/>
</clipPath>
<clipPath id="clip2_5840_147291">
<rect x="-1.5" y="-1.39062" width="42" height="42" rx="5" fill="white"/>
</clipPath>
</defs>
</svg>
